<svg xmlns="http://www.w3.org/2000/svg" xmlns:xlink="http://www.w3.org/1999/xlink" version="1.1" width="60px" height="60px" viewBox="0 0 256 256" xml:space="preserve">

<defs>
</defs>
<g style="stroke: none; stroke-width: 0; stroke-dasharray: none; stroke-linecap: butt; stroke-linejoin: miter; stroke-miterlimit: 10; fill: none; fill-rule: nonzero; opacity: 1;" transform="translate(1.4065934065934016 1.4065934065934016) scale(2.81 2.81)" >
	<path d="M 41.853 33.776 c -0.218 0 -0.439 -0.048 -0.648 -0.148 c -1.709 -0.82 -3.371 -0.821 -5.08 0 c -0.748 0.358 -1.643 0.044 -2.002 -0.704 c -0.358 -0.747 -0.043 -1.643 0.704 -2.002 c 2.547 -1.222 5.128 -1.222 7.676 0 c 0.747 0.358 1.062 1.254 0.704 2.002 C 42.949 33.462 42.412 33.776 41.853 33.776 z" style="stroke: none; stroke-width: 1; stroke-dasharray: none; stroke-linecap: butt; stroke-linejoin: miter; stroke-miterlimit: 10; fill: #fff; fill-rule: nonzero; opacity: 1;" transform=" matrix(1 0 0 1 0 0) " stroke-linecap="round" />
	<path d="M 53.976 33.776 c -0.218 0 -0.439 -0.048 -0.648 -0.148 c -1.71 -0.82 -3.369 -0.821 -5.081 0 c -0.745 0.356 -1.644 0.043 -2.001 -0.704 c -0.358 -0.747 -0.043 -1.643 0.704 -2.002 c 2.545 -1.221 5.13 -1.222 7.675 0 c 0.747 0.358 1.063 1.254 0.704 2.002 C 55.072 33.462 54.535 33.776 53.976 33.776 z" style="stroke: none; stroke-width: 1; stroke-dasharray: none; stroke-linecap: butt; stroke-linejoin: miter; stroke-miterlimit: 10; fill: #fff; fill-rule: nonzero; opacity: 1;" transform=" matrix(1 0 0 1 0 0) " stroke-linecap="round" />
	<path d="M 65.895 59.299 l -0.589 -0.108 V 30.509 v -5.266 c 0 -5.416 -2.177 -10.611 -6.004 -14.412 l 2.603 -7.304 c 0.146 -0.411 0.106 -0.865 -0.108 -1.244 c -0.216 -0.379 -0.586 -0.646 -1.014 -0.731 c -10.473 -2.069 -21.093 -2.069 -31.566 0 c -0.428 0.085 -0.798 0.352 -1.013 0.731 c -0.215 0.379 -0.255 0.834 -0.109 1.245 l 2.603 7.304 c -3.827 3.801 -6.004 8.997 -6.004 14.413 v 5.266 v 28.682 l -0.589 0.108 c -4.601 0.842 -7.942 4.848 -7.942 9.525 v 17.217 c 0 2.183 1.776 3.958 3.958 3.958 h 49.758 c 2.183 0 3.958 -1.776 3.958 -3.958 V 68.825 C 73.837 64.147 70.497 60.141 65.895 59.299 z M 58.515 57.951 c -2.144 -0.393 -3.7 -2.259 -3.7 -4.439 v -0.852 c 0.307 -0.27 0.625 -0.526 0.918 -0.816 c 0.887 -0.877 1.699 -1.842 2.416 -2.869 c 0.715 -1.024 1.34 -2.123 1.86 -3.264 c 0.983 -2.161 1.581 -4.456 1.778 -6.822 l 0.52 -6.205 v 25.961 L 58.515 57.951 z M 45 76.197 c -5.056 -4.052 -8.833 -9.375 -11.286 -15.822 c 2.281 -1.01 3.93 -3.099 4.36 -5.576 c 1.159 0.706 2.391 1.31 3.695 1.781 c 1.042 0.377 2.136 0.565 3.231 0.565 s 2.19 -0.188 3.231 -0.564 c 1.303 -0.471 2.531 -1.076 3.695 -1.783 c 0.429 2.478 2.078 4.567 4.359 5.577 C 53.832 66.822 50.055 72.146 45 76.197 z M 52.143 51.016 c -1.481 1.172 -3.132 2.093 -4.932 2.743 c -1.426 0.514 -2.996 0.515 -4.422 -0.001 c -1.831 -0.661 -3.501 -1.62 -4.977 -2.797 c -0.119 -0.137 -0.262 -0.25 -0.423 -0.336 c -0.596 -0.506 -1.154 -1.053 -1.676 -1.631 c -0.02 -0.105 -0.05 -0.209 -0.094 -0.312 c -0.601 -1.388 -0.568 -3.992 0.527 -5.947 c 0.783 -1.398 1.965 -2.218 3.515 -2.439 c 0.073 -0.01 0.142 -0.037 0.213 -0.058 c 0.037 -0.011 0.074 -0.016 0.11 -0.03 c 0.13 -0.05 0.254 -0.113 0.366 -0.197 c 3.193 -2.399 6.146 -2.399 9.292 -0.006 c 0.003 0.002 0.006 0.003 0.008 0.004 c 0.036 0.027 0.079 0.041 0.118 0.064 c 0.093 0.058 0.186 0.114 0.289 0.15 c 0.054 0.019 0.113 0.022 0.169 0.035 c 0.081 0.018 0.161 0.046 0.245 0.05 c 1.262 0.067 2.295 0.737 3.071 1.989 c 1.25 2.018 1.446 4.984 0.841 6.383 c -0.043 0.1 -0.073 0.203 -0.094 0.306 c -0.219 0.243 -0.433 0.491 -0.665 0.72 c -0.339 0.335 -0.7 0.639 -1.061 0.943 C 52.4 50.747 52.259 50.87 52.143 51.016 z M 57.421 44.111 c -0.267 -1.217 -0.715 -2.397 -1.33 -3.39 c -0.423 -0.683 -0.919 -1.267 -1.471 -1.754 c 1.577 -0.657 3.026 -1.413 4.337 -2.266 l -0.162 1.937 C 58.639 40.532 58.168 42.369 57.421 44.111 z M 59.291 32.726 c -2.209 1.878 -5.059 3.366 -8.483 4.434 c -3.817 -2.588 -7.831 -2.572 -11.687 0.051 c -3.44 -0.714 -5.974 -1.485 -8.365 -3.919 l -0.281 -3.361 c 9.597 -1.406 15.848 -3.58 19.846 -6.919 c 2.684 2.974 5.285 4.995 9.184 7.162 L 59.291 32.726 z M 35.061 39.294 c -0.59 0.555 -1.106 1.213 -1.534 1.976 c -0.48 0.857 -0.797 1.777 -1.005 2.701 c -0.704 -1.676 -1.164 -3.469 -1.32 -5.334 l -0.099 -1.187 C 32.409 38.302 33.742 38.873 35.061 39.294 z M 58.489 4.176 l -2.346 6.582 c 0 0.001 -0.001 0.002 -0.001 0.003 l -1.174 3.294 c -6.62 -1.63 -13.315 -1.63 -19.937 0 l -3.521 -9.878 C 40.47 2.608 49.529 2.609 58.489 4.176 z M 31.84 14.036 l 0.828 2.323 c 0.218 0.61 0.793 0.997 1.413 0.997 c 0.134 0 0.271 -0.019 0.405 -0.056 c 6.978 -1.956 14.052 -1.956 21.028 0 c 0.761 0.212 1.554 -0.198 1.819 -0.941 l 0.828 -2.324 c 2.647 3.112 4.146 7.08 4.146 11.208 v 3.242 c -0.133 -0.194 -0.301 -0.366 -0.517 -0.481 c -4.536 -2.43 -7.206 -4.551 -10.203 -8.105 c -0.272 -0.322 -0.667 -0.515 -1.089 -0.532 c -0.428 -0.008 -0.83 0.146 -1.126 0.447 c -3.579 3.634 -9.966 5.899 -20.709 7.342 c -0.395 0.053 -0.735 0.257 -0.968 0.546 v -2.459 C 27.694 21.116 29.193 17.148 31.84 14.036 z M 27.694 32.675 l 0.52 6.212 c 0.452 5.407 3.027 10.321 6.972 13.789 v 0.835 c 0 2.18 -1.557 4.046 -3.701 4.439 l -3.791 0.693 V 32.675 z M 19.163 86.042 V 68.825 c 0 -3.228 2.305 -5.993 5.481 -6.574 l 1.848 -0.338 c 0.002 0 0.005 -0.001 0.007 -0.001 l 4.297 -0.785 c 2.697 7.248 6.961 13.189 12.704 17.681 V 87 H 30.074 v -4.075 c 0 -0.828 -0.671 -1.5 -1.5 -1.5 c -0.829 0 -1.5 0.672 -1.5 1.5 V 87 h -6.953 C 19.593 87 19.163 86.57 19.163 86.042 z M 70.837 86.042 c 0 0.528 -0.43 0.958 -0.958 0.958 h -6.953 v -4.075 c 0 -0.828 -0.672 -1.5 -1.5 -1.5 s -1.5 0.672 -1.5 1.5 V 87 H 46.5 v -8.192 c 5.743 -4.491 10.007 -10.433 12.704 -17.681 l 4.297 0.785 c 0.002 0 0.004 0.001 0.006 0.001 l 1.848 0.338 c 3.176 0.581 5.481 3.346 5.481 6.574 V 86.042 z" style="stroke: none; stroke-width: 1; stroke-dasharray: none; stroke-linecap: butt; stroke-linejoin: miter; stroke-miterlimit: 10; fill: #fff; fill-rule: nonzero; opacity: 1;" transform=" matrix(1 0 0 1 0 0) " stroke-linecap="round" />
</g>
</svg>